<?xml version="1.0" standalone="no"?>
<!DOCTYPE svg PUBLIC "-//W3C//DTD SVG 20010904//EN"
 "http://www.w3.org/TR/2001/REC-SVG-20010904/DTD/svg10.dtd">
<svg version="1.0" xmlns="http://www.w3.org/2000/svg"
 width="400.000000pt" height="400.000000pt" viewBox="0 0 400.000000 400.000000"
 preserveAspectRatio="xMidYMid meet">

<g transform="translate(0.000000,400.000000) scale(0.100000,-0.100000)"
fill="#000000" stroke="none">
<path d="M1818 3584 c-148 -22 -329 -78 -465 -143 -381 -184 -658 -483 -816
-881 -72 -182 -113 -439 -102 -640 14 -266 63 -454 175 -675 85 -167 170 -285
295 -410 240 -239 495 -373 865 -452 134 -28 458 -25 604 6 511 108 927 431
1140 883 213 452 215 959 6 1405 -215 457 -636 785 -1145 893 -134 28 -418 36
-557 14z m602 -885 c94 -38 106 -58 69 -111 -25 -34 -37 -34 -131 1 -70 26
-120 26 -173 2 -78 -35 -115 -103 -115 -211 0 -69 30 -132 83 -174 36 -29 44
-31 124 -31 97 0 116 13 111 75 -2 29 -7 35 -28 38 -58 6 -68 12 -75 41 -3 17
-1 39 5 50 10 19 20 21 110 21 64 0 101 -4 106 -12 9 -14 8 -253 -1 -268 -27
-44 -192 -78 -298 -62 -84 13 -126 34 -178 86 -63 62 -93 134 -97 233 -8 165
68 282 218 337 62 23 195 15 270 -15z m637 1 c135 -59 209 -212 183 -377 -18
-112 -80 -194 -179 -241 -70 -32 -196 -36 -281 -7 -79 26 -160 109 -184 189
-27 85 -19 222 17 292 42 82 131 149 222 165 59 11 174 0 222 -21z m-1816 0
c5 -8 47 -114 94 -235 47 -121 93 -235 101 -253 22 -47 55 -145 50 -149 -9 -9
-95 -4 -115 6 -29 16 -51 68 -157 366 -20 55 -39 104 -44 108 -8 9 -18 -15
-115 -283 -75 -205 -72 -200 -145 -200 -32 0 -61 4 -64 8 -4 6 196 523 244
630 9 21 15 23 76 20 47 -2 69 -8 75 -18z m434 -242 c0 -174 4 -261 11 -268 7
-7 53 -11 118 -11 119 0 136 -8 136 -62 0 -58 0 -58 -206 -55 l-189 3 -3 315
c-1 173 0 321 3 328 3 9 23 12 67 10 l62 -3 1 -257z m-477 -725 c57 -20 69
-44 39 -78 l-22 -27 -66 18 c-85 22 -128 14 -168 -32 -27 -30 -31 -42 -31 -90
0 -67 20 -114 59 -137 34 -20 121 -23 139 -5 22 22 13 47 -23 62 -36 16 -46
41 -23 64 7 7 42 12 85 12 l74 0 -3 -96 c-3 -93 -4 -98 -31 -118 -23 -17 -46
-22 -123 -24 -80 -3 -100 -1 -138 18 -77 37 -125 119 -126 218 -1 177 172 282
358 215z m206 11 c14 -5 16 -30 16 -173 0 -118 4 -172 13 -184 9 -12 31 -17
87 -19 l75 -3 0 -40 0 -40 -135 0 -135 0 -3 219 c-2 153 1 223 9 232 12 15 46
18 73 8z m536 -15 c57 -24 116 -93 126 -146 11 -60 -2 -150 -29 -196 -14 -24
-45 -57 -68 -73 -40 -27 -48 -29 -140 -29 -93 0 -99 1 -140 31 -64 46 -91 105
-91 196 0 86 12 121 55 167 68 72 188 93 287 50z m447 2 c23 -11 46 -28 52
-39 17 -31 13 -107 -6 -141 -17 -29 -17 -30 6 -55 33 -35 35 -112 5 -153 -36
-50 -77 -63 -194 -63 -58 0 -111 4 -118 8 -18 12 -20 425 -2 447 20 24 202 21
257 -4z m375 -4 c4 -6 28 -66 54 -132 26 -66 60 -151 76 -188 16 -38 30 -81
31 -95 2 -24 -2 -27 -31 -30 -21 -2 -41 3 -52 13 -9 8 -41 83 -70 165 -30 83
-57 150 -61 150 -3 0 -30 -64 -59 -142 -67 -183 -70 -188 -120 -188 -36 0 -40
2 -40 26 0 15 20 74 44 133 24 58 60 147 80 196 20 50 44 95 53 102 18 14 84
7 95 -10z m296 11 c8 -8 12 -65 12 -190 l0 -178 78 0 c82 0 102 -9 102 -44 0
-42 -11 -45 -143 -47 -71 0 -131 2 -134 5 -8 8 -6 443 2 456 9 14 69 12 83 -2z"/>
<path d="M2848 2596 c-60 -22 -84 -42 -108 -91 -19 -38 -21 -59 -19 -129 4
-71 8 -88 32 -123 34 -50 92 -77 161 -77 100 0 167 56 188 158 38 179 -97 318
-254 262z"/>
<path d="M1756 1639 c-38 -30 -56 -71 -56 -129 0 -92 45 -140 130 -140 87 0
130 48 130 147 0 95 -44 142 -131 143 -32 0 -54 -6 -73 -21z"/>
<path d="M2233 1663 c-8 -3 -13 -23 -13 -49 0 -37 4 -46 24 -55 51 -23 116 23
101 71 -10 31 -72 50 -112 33z"/>
<path d="M2232 1471 c-9 -5 -12 -23 -10 -51 3 -39 6 -45 33 -52 63 -17 125 23
110 71 -10 32 -100 54 -133 32z"/>
</g>
</svg>
